HIERARCHY
ROOT Hips
{
  OFFSET 0 0 0
  CHANNELS 6 Xposition Yposition Zposition Zrotation Yrotation Xrotation
  JOINT LeftThigh
  {
    OFFSET 8.409438 0 -5.917753
    CHANNELS 3 Zrotation Yrotation Xrotation
    JOINT LeftLeg
    {
      OFFSET 0 0 -42.358652
      CHANNELS 3 Zrotation Yrotation Xrotation
      JOINT LeftFoot
      {
        OFFSET 0 0 -39.357303
        CHANNELS 3 Zrotation Yrotation Xrotation
      }
    }
  }
  JOINT RightThigh
  {
    OFFSET -8.409438 0 -5.917753
    CHANNELS 3 Zrotation Yrotation Xrotation
    JOINT RightLeg
    {
      OFFSET 0 0 -42.358652
      CHANNELS 3 Zrotation Yrotation Xrotation
      JOINT RightFoot
      {
        OFFSET 0 0 -39.357303
        CHANNELS 3 Zrotation Yrotation Xrotation
      }
    }
  }
  JOINT SpineLow
  {
    OFFSET 0 0 4.719101
    CHANNELS 3 Zrotation Yrotation Xrotation
    JOINT SpineMid
    {
      OFFSET 0 0 12.899191
      CHANNELS 3 Zrotation Yrotation Xrotation
      JOINT Chest
      {
        OFFSET 0 0 12.899191
        CHANNELS 3 Zrotation Yrotation Xrotation
        JOINT LeftShoulder
        {
          OFFSET 7.550562 1.41573 9.438202
          CHANNELS 3 Zrotation Yrotation Xrotation
          JOINT LeftArm
          {
            OFFSET 9.155056 0 4.247191
            CHANNELS 3 Zrotation Yrotation Xrotation
            JOINT LeftForearm
            {
              OFFSET 0 0 25.771955
              CHANNELS 3 Zrotation Yrotation Xrotation
              JOINT LeftHand
              {
                OFFSET 0 0 25.197169
                CHANNELS 3 Zrotation Yrotation Xrotation
              }
            }
          }
        }
        JOINT RightShoulder
        {
          OFFSET -7.550562 1.41573 9.438202
          CHANNELS 3 Zrotation Yrotation Xrotation
          JOINT RightArm
          {
            OFFSET -9.155056 0 4.247191
            CHANNELS 3 Zrotation Yrotation Xrotation
            JOINT RightForearm
            {
              OFFSET 0 0 -25.771955
              CHANNELS 3 Zrotation Yrotation Xrotation
              JOINT RightHand
              {
                OFFSET 0 0 -25.197169
                CHANNELS 3 Zrotation Yrotation Xrotation
              }
            }
          }
        }
        JOINT Neck
        {
          OFFSET 0 0 15.101124
          CHANNELS 3 Zrotation Yrotation Xrotation
          JOINT Head
          {
            OFFSET 0 0 11.325843
            CHANNELS 3 Zrotation Yrotation Xrotation
            End Site
            {
              OFFSET 0 0 14.157303
            }
          }
        }
      }
    }
  }
}
MOTION
Frames: 11
Frame Time: 0.0
0.0  89.887642  0.0  4.382232  -26.077013  -105.73013  11.256298  -10.932548  14.101524  12.279807  0.588468  24.501837  8.292419  3.063903  4.609206  -5.289332  10.950329  0.115434  -2.430692  5.243735  12.407216  5.650018  1.431637  -1.816066  7.057845  -1.386561  1.407753  19.226865  -4.160393  3.411808  19.226866  -4.160393  3.411809  9.500125  6.629608  2.703478  158.653698  20.646032  -168.840372  -19.553177  47.364522  93.391089  85.543088  4.853819  26.351791  2.359482  -3.27557  18.14353  15.300045  58.228178  -58.022834  27.326524  -35.730445  -113.426248  54.042463  -16.694409  -1.233117  -17.574441  6.259923  5.138172  -13.221521  4.552141  4.034459  
0.0  89.887642  0.0  4.277839  -31.266514  -106.018439  13.847372  -11.059867  14.439191  13.57904  -0.390449  24.848145  8.54969  3.179229  4.706375  -4.311788  9.792867  -0.026087  -1.47177  5.124065  11.691002  6.559253  1.457184  -2.08495  7.221505  -1.203266  1.19437  19.692186  -3.609193  2.876587  19.692186  -3.609192  2.876587  10.404252  6.564106  5.106642  161.782067  20.431823  -173.287473  -20.920916  50.371423  94.979587  83.760676  2.14819  28.617667  3.563863  -4.669717  14.673095  8.304657  59.830836  -65.153993  16.084481  -31.062962  -108.709008  54.534539  -15.976809  1.577203  -16.074377  4.548147  6.149876  -12.096696  3.252449  4.733744  
0.0  89.887642  0.0  4.378118  -35.927282  -106.165492  17.66114  -11.909564  14.263353  13.727392  -0.604184  25.230814  8.681073  3.221925  4.765528  -3.025737  8.834072  -0.073112  -0.779187  5.072508  10.718436  7.358239  1.290701  -2.355214  7.354231  -0.846945  0.986829  20.073013  -2.588329  2.413959  20.073012  -2.588329  2.41396  11.906187  4.017491  5.832201  163.149697  17.769699  -177.923541  -21.290492  51.314784  96.430714  81.334659  -1.237997  28.368071  4.930987  -6.002485  10.850167  -0.793773  60.824096  -73.461244  5.466384  -25.912343  -104.56456  53.857698  -15.387805  4.218136  -14.975558  2.123781  6.988047  -11.256407  1.422785  5.296281  
0.0  89.887642  0.0  4.690835  -39.253811  -106.693539  21.445591  -13.364601  14.253972  12.996108  -0.089711  25.613622  8.710726  3.219268  4.789241  -1.536256  8.438911  0.504369  -0.805611  4.779113  9.498801  7.709996  1.070759  -2.468984  7.197035  -0.502714  0.726489  19.658619  -1.57491  1.817257  19.658619  -1.574909  1.817256  16.494631  -0.18051  6.074073  161.500808  13.256268  177.444037  -22.477737  51.141956  96.075881  79.75465  -5.077564  26.36312  6.711283  -6.586476  8.021271  -11.067295  61.258551  -82.386778  -3.630345  -21.474904  -101.213242  54.162544  -14.641218  6.547032  -13.704007  -0.075849  8.136191  -10.279167  -0.239591  6.10409  
0.0  89.887642  0.0  4.617925  -41.265593  -107.044997  24.021964  -14.759322  14.030749  12.483592  0.363197  26.171181  8.645693  3.168058  4.758654  0.008042  8.351533  1.264656  -1.647608  4.19555  8.354729  7.587132  0.901535  -2.379693  6.905574  -0.444467  0.525081  18.867427  -1.352574  1.295812  18.867427  -1.352574  1.295812  20.140599  -0.791979  8.696226  160.397735  11.359897  174.991333  -24.621529  51.864887  93.459026  76.997543  -11.002976  22.249962  7.959075  -4.992898  5.605308  -21.046161  61.57041  -90.475164  -11.433952  -17.538229  -97.693504  56.472512  -13.301868  8.262099  -11.315458  -2.052095  7.528568  -8.461938  -1.679462  5.6101  
0.0  89.887642  0.0  3.767611  -42.138266  -106.477266  25.288147  -15.636919  13.253908  12.335976  0.364849  26.633426  8.659864  3.099403  4.726683  1.158574  7.94467  1.728414  -3.251228  3.795281  7.390047  7.321911  0.828857  -2.277942  6.77617  -0.539044  0.537751  18.512296  -1.609943  1.306675  18.512296  -1.609943  1.306675  21.404278  1.008275  10.647206  158.885572  10.074045  173.80434  -31.04783  55.847321  88.117615  72.586526  -15.653856  21.014392  7.130776  -1.269878  1.773373  -29.793366  61.258883  -96.358779  -17.557995  -14.122696  -94.994599  59.156089  -11.347367  9.925985  -11.767039  -2.355452  7.374029  -8.797141  -1.909746  5.486786  
0.0  89.887642  0.0  2.462449  -42.345347  -105.798244  25.938553  -16.609717  12.38948  12.325495  0.222099  27.166197  8.514743  2.912286  4.792542  2.190978  6.958499  2.378762  -5.18475  3.873995  6.691557  7.407537  0.798565  -2.263097  7.312608  -0.09515  0.643831  19.98439  -0.450751  1.712855  19.984391  -0.450751  1.712855  17.512862  -0.262552  8.58106  157.932789  8.397755  172.58907  -40.644672  63.839146  79.745784  72.401064  -18.928769  22.887632  0.355845  -0.627582  -3.208568  -38.67869  59.503981  -102.094553  -21.782228  -10.350528  -92.466924  60.900817  -9.313321  12.004435  -14.000135  -5.102398  5.929175  -10.444739  -3.965438  4.329455  
0.0  89.887642  0.0  0.90579  -41.487279  -104.357841  25.767147  -17.39273  10.989906  12.274853  0.259731  27.829038  7.919784  2.631638  4.757211  2.439002  5.859815  2.296612  -6.566856  4.109062  6.25884  7.591268  0.78151  -2.290114  7.643379  0.289492  0.591573  20.898604  0.596547  1.689406  20.898604  0.596547  1.689406  14.139461  -1.312961  7.772408  157.255565  8.60829  172.201331  -48.540388  67.345345  72.170285  73.405361  -22.131913  23.230916  -6.046811  -0.146416  -6.382018  -49.524454  57.181938  -109.177105  -25.105234  -6.368178  -89.076567  60.714864  -7.505745  13.361337  -15.905967  -7.022132  5.259468  -11.854887  -5.408083  3.759036  
0.0  89.887642  0.0  -0.694386  -39.917564  -102.383899  25.086379  -18.199733  9.080644  11.361785  0.900701  28.602776  7.77322  2.751116  4.441232  2.034753  4.879614  1.467246  -6.939195  4.286406  6.156467  7.480154  0.807651  -2.238243  7.267384  0.347174  0.334358  19.870037  0.83929  1.008196  19.870036  0.83929  1.008196  14.094209  -0.860519  8.47874  156.822096  9.219746  171.817748  -50.555336  65.937104  70.275089  72.972073  -23.424015  22.879051  -7.436718  0.984157  -6.843564  -63.680013  54.949743  -118.716527  -26.921503  -3.711525  -85.637013  59.966766  -5.53446  13.989857  -16.002405  -6.918369  5.967773  -11.920737  -5.349754  4.291879  
0.0  89.887642  0.0  -1.52801  -38.045671  -100.784358  24.343467  -18.623403  7.18508  9.63644  1.894599  29.07482  8.194779  3.212026  4.384003  1.354831  4.436265  0.349469  -6.696018  4.504066  6.378674  7.023165  0.814603  -2.180772  6.704493  0.195966  0.142587  18.327459  0.491619  0.440353  18.327459  0.491619  0.440353  14.735798  0.870209  9.734437  156.751154  9.581623  171.848381  -49.308492  63.197724  71.230813  72.908983  -23.162523  20.382455  -7.590721  2.933373  -7.014641  -77.316026  52.468274  -127.739543  -27.867459  -2.462297  -82.28512  59.867491  -3.462784  13.632365  -14.884493  -5.904085  5.576504  -11.100569  -4.567402  4.037231  
0.0  89.887642  0.0  -1.981773  -36.358719  -99.127452  23.767495  -18.540784  5.361698  8.428605  2.795621  29.222266  8.555732  3.451606  4.37119  0.510328  4.20757  -1.242025  -6.360688  4.671149  6.910643  6.471524  0.916626  -2.113307  6.069872  0.195171  0.073845  16.592274  0.511174  0.249162  16.592274  0.511174  0.249162  16.006896  1.972993  9.235191  156.61113  9.689434  171.922796  -48.471965  61.042168  71.052817  75.534514  -22.646737  17.966574  -8.012646  3.751091  -8.972816  -86.047419  50.253811  -134.2552  -27.584725  -0.786978  -78.566734  60.171806  -0.823987  13.276256  -13.157404  -5.081571  4.808986  -9.822244  -3.917074  3.496618  
